<svg width="32" height="32" viewBox="0 0 32 32" fill="none" xmlns="http://www.w3.org/2000/svg">
  <defs>
    <linearGradient id="g" x1="0" y1="0" x2="1" y2="1">
      <stop offset="0%" stop-color="#6366f1"/>
      <stop offset="100%" stop-color="#22d3ee"/>
    </linearGradient>
  </defs>
  <rect x="9" y="2" width="2" height="4" rx="1" fill="#6366f1" opacity="0.6"/>
  <rect x="15" y="2" width="2" height="4" rx="1" fill="#6366f1" opacity="0.6"/>
  <rect x="21" y="2" width="2" height="4" rx="1" fill="#6366f1" opacity="0.6"/>
  <rect x="9" y="26" width="2" height="4" rx="1" fill="#22d3ee" opacity="0.5"/>
  <rect x="15" y="26" width="2" height="4" rx="1" fill="#22d3ee" opacity="0.5"/>
  <rect x="21" y="26" width="2" height="4" rx="1" fill="#22d3ee" opacity="0.5"/>
  <rect x="2" y="9" width="4" height="2" rx="1" fill="#6366f1" opacity="0.6"/>
  <rect x="2" y="15" width="4" height="2" rx="1" fill="#6366f1" opacity="0.6"/>
  <rect x="2" y="21" width="4" height="2" rx="1" fill="#6366f1" opacity="0.6"/>
  <rect x="26" y="9" width="4" height="2" rx="1" fill="#22d3ee" opacity="0.5"/>
  <rect x="26" y="15" width="4" height="2" rx="1" fill="#22d3ee" opacity="0.5"/>
  <rect x="26" y="21" width="4" height="2" rx="1" fill="#22d3ee" opacity="0.5"/>
  <rect x="6" y="6" width="20" height="20" rx="3.5" fill="url(#g)"/>
  <rect x="9" y="9" width="5.5" height="5.5" rx="1.2" fill="white" opacity="0.95"/>
  <rect x="17.5" y="9" width="5.5" height="5.5" rx="1.2" fill="white" opacity="0.6"/>
  <rect x="9" y="17.5" width="5.5" height="5.5" rx="1.2" fill="white" opacity="0.6"/>
  <rect x="17.5" y="17.5" width="5.5" height="5.5" rx="1.2" fill="white" opacity="0.3"/>
</svg>
